<svg xmlns="http://www.w3.org/2000/svg" width="755" height="815" viewBox="0 0 755 815" style="background-color: #0d0d14; font-family: monospace;">
<text x="377.5" y="30" text-anchor="middle" fill="#ffffff" font-size="16" font-family="Arial" font-weight="bold">GENESIS 1 CONVERGENCE (POS 922)</text>
<rect x="40" y="70" width="40" height="40" rx="4" fill="#15151e" stroke="#333333" stroke-width="1"/>
<text x="60.0" y="96.0" text-anchor="middle" fill="#555555" font-size="20" font-weight="normal">מ</text>
<rect x="85" y="70" width="40" height="40" rx="4" fill="#15151e" stroke="#333333" stroke-width="1"/>
<text x="105.0" y="96.0" text-anchor="middle" fill="#555555" font-size="20" font-weight="normal">ש</text>
<rect x="130" y="70" width="40" height="40" rx="4" fill="#15151e" stroke="#333333" stroke-width="1"/>
<text x="150.0" y="96.0" text-anchor="middle" fill="#555555" font-size="20" font-weight="normal">ל</text>
<rect x="175" y="70" width="40" height="40" rx="4" fill="#15151e" stroke="#333333" stroke-width="1"/>
<text x="195.0" y="96.0" text-anchor="middle" fill="#555555" font-size="20" font-weight="normal">ב</text>
<rect x="220" y="70" width="40" height="40" rx="4" fill="#15151e" stroke="#333333" stroke-width="1"/>
<text x="240.0" y="96.0" text-anchor="middle" fill="#555555" font-size="20" font-weight="normal">י</text>
<rect x="265" y="70" width="40" height="40" rx="4" fill="#15151e" stroke="#333333" stroke-width="1"/>
<text x="285.0" y="96.0" text-anchor="middle" fill="#555555" font-size="20" font-weight="normal">ו</text>
<rect x="310" y="70" width="40" height="40" rx="4" fill="#15151e" stroke="#333333" stroke-width="1"/>
<text x="330.0" y="96.0" text-anchor="middle" fill="#555555" font-size="20" font-weight="normal">מ</text>
<rect x="355" y="70" width="40" height="40" rx="4" fill="#15151e" stroke="#333333" stroke-width="1"/>
<text x="375.0" y="96.0" text-anchor="middle" fill="#555555" font-size="20" font-weight="normal">ו</text>
<rect x="400" y="70" width="40" height="40" rx="4" fill="#15151e" stroke="#333333" stroke-width="1"/>
<text x="420.0" y="96.0" text-anchor="middle" fill="#555555" font-size="20" font-weight="normal">ב</text>
<rect x="445" y="70" width="40" height="40" rx="4" fill="#15151e" stroke="#333333" stroke-width="1"/>
<text x="465.0" y="96.0" text-anchor="middle" fill="#555555" font-size="20" font-weight="normal">ל</text>
<rect x="490" y="70" width="40" height="40" rx="4" fill="#15151e" stroke="#333333" stroke-width="1"/>
<text x="510.0" y="96.0" text-anchor="middle" fill="#555555" font-size="20" font-weight="normal">י</text>
<rect x="535" y="70" width="40" height="40" rx="4" fill="#15151e" stroke="#333333" stroke-width="1"/>
<text x="555.0" y="96.0" text-anchor="middle" fill="#555555" font-size="20" font-weight="normal">ל</text>
<rect x="580" y="70" width="40" height="40" rx="4" fill="#15151e" stroke="#333333" stroke-width="1"/>
<text x="600.0" y="96.0" text-anchor="middle" fill="#555555" font-size="20" font-weight="normal">ה</text>
<rect x="625" y="70" width="40" height="40" rx="4" fill="#15151e" stroke="#333333" stroke-width="1"/>
<text x="645.0" y="96.0" text-anchor="middle" fill="#555555" font-size="20" font-weight="normal">ו</text>
<rect x="670" y="70" width="40" height="40" rx="4" fill="#15151e" stroke="#333333" stroke-width="1"/>
<text x="690.0" y="96.0" text-anchor="middle" fill="#555555" font-size="20" font-weight="normal">ל</text>
<rect x="40" y="115" width="40" height="40" rx="4" fill="#15151e" stroke="#333333" stroke-width="1"/>
<text x="60.0" y="141.0" text-anchor="middle" fill="#555555" font-size="20" font-weight="normal">ה</text>
<rect x="85" y="115" width="40" height="40" rx="4" fill="#15151e" stroke="#333333" stroke-width="1"/>
<text x="105.0" y="141.0" text-anchor="middle" fill="#555555" font-size="20" font-weight="normal">ו</text>
<rect x="130" y="115" width="40" height="40" rx="4" fill="#15151e" stroke="#333333" stroke-width="1"/>
<text x="150.0" y="141.0" text-anchor="middle" fill="#555555" font-size="20" font-weight="normal">ל</text>
<rect x="175" y="115" width="40" height="40" rx="4" fill="#15151e" stroke="#333333" stroke-width="1"/>
<text x="195.0" y="141.0" text-anchor="middle" fill="#555555" font-size="20" font-weight="normal">ה</text>
<rect x="220" y="115" width="40" height="40" rx="4" fill="#15151e" stroke="#333333" stroke-width="1"/>
<text x="240.0" y="141.0" text-anchor="middle" fill="#555555" font-size="20" font-weight="normal">ב</text>
<rect x="265" y="115" width="40" height="40" rx="4" fill="#15151e" stroke="#333333" stroke-width="1"/>
<text x="285.0" y="141.0" text-anchor="middle" fill="#555555" font-size="20" font-weight="normal">ד</text>
<rect x="310" y="115" width="40" height="40" rx="4" fill="#15151e" stroke="#333333" stroke-width="1"/>
<text x="330.0" y="141.0" text-anchor="middle" fill="#555555" font-size="20" font-weight="normal">י</text>
<rect x="355" y="115" width="40" height="40" rx="4" fill="#15151e" stroke="#333333" stroke-width="1"/>
<text x="375.0" y="141.0" text-anchor="middle" fill="#555555" font-size="20" font-weight="normal">ל</text>
<rect x="400" y="115" width="40" height="40" rx="4" fill="#15151e" stroke="#333333" stroke-width="1"/>
<text x="420.0" y="141.0" text-anchor="middle" fill="#555555" font-size="20" font-weight="normal">ב</text>
<rect x="445" y="115" width="40" height="40" rx="4" fill="#15151e" stroke="#333333" stroke-width="1"/>
<text x="465.0" y="141.0" text-anchor="middle" fill="#555555" font-size="20" font-weight="normal">י</text>
<rect x="490" y="115" width="40" height="40" rx="4" fill="#15151e" stroke="#333333" stroke-width="1"/>
<text x="510.0" y="141.0" text-anchor="middle" fill="#555555" font-size="20" font-weight="normal">נ</text>
<rect x="535" y="115" width="40" height="40" rx="4" fill="#15151e" stroke="#333333" stroke-width="1"/>
<text x="555.0" y="141.0" text-anchor="middle" fill="#555555" font-size="20" font-weight="normal">ה</text>
<rect x="580" y="115" width="40" height="40" rx="4" fill="#15151e" stroke="#333333" stroke-width="1"/>
<text x="600.0" y="141.0" text-anchor="middle" fill="#555555" font-size="20" font-weight="normal">א</text>
<rect x="625" y="115" width="40" height="40" rx="4" fill="#15151e" stroke="#333333" stroke-width="1"/>
<text x="645.0" y="141.0" text-anchor="middle" fill="#555555" font-size="20" font-weight="normal">ו</text>
<rect x="670" y="115" width="40" height="40" rx="4" fill="#15151e" stroke="#333333" stroke-width="1"/>
<text x="690.0" y="141.0" text-anchor="middle" fill="#555555" font-size="20" font-weight="normal">ר</text>
<rect x="40" y="160" width="40" height="40" rx="4" fill="#15151e" stroke="#333333" stroke-width="1"/>
<text x="60.0" y="186.0" text-anchor="middle" fill="#555555" font-size="20" font-weight="normal">א</text>
<rect x="85" y="160" width="40" height="40" rx="4" fill="#15151e" stroke="#333333" stroke-width="1"/>
<text x="105.0" y="186.0" text-anchor="middle" fill="#555555" font-size="20" font-weight="normal">ו</text>
<rect x="130" y="160" width="40" height="40" rx="4" fill="#15151e" stroke="#333333" stroke-width="1"/>
<text x="150.0" y="186.0" text-anchor="middle" fill="#555555" font-size="20" font-weight="normal">ר</text>
<rect x="175" y="160" width="40" height="40" rx="4" fill="#15151e" stroke="#333333" stroke-width="1"/>
<text x="195.0" y="186.0" text-anchor="middle" fill="#555555" font-size="20" font-weight="normal">ו</text>
<rect x="220" y="160" width="40" height="40" rx="4" fill="#15151e" stroke="#333333" stroke-width="1"/>
<text x="240.0" y="186.0" text-anchor="middle" fill="#555555" font-size="20" font-weight="normal">ב</text>
<rect x="265" y="160" width="40" height="40" rx="4" fill="#15151e" stroke="#333333" stroke-width="1"/>
<text x="285.0" y="186.0" text-anchor="middle" fill="#555555" font-size="20" font-weight="normal">י</text>
<rect x="310" y="160" width="40" height="40" rx="4" fill="#15151e" stroke="#333333" stroke-width="1"/>
<text x="330.0" y="186.0" text-anchor="middle" fill="#555555" font-size="20" font-weight="normal">נ</text>
<rect x="355" y="160" width="40" height="40" rx="4" fill="#15151e" stroke="#333333" stroke-width="1"/>
<text x="375.0" y="186.0" text-anchor="middle" fill="#555555" font-size="20" font-weight="normal">ה</text>
<rect x="400" y="160" width="40" height="40" rx="4" fill="#15151e" stroke="#333333" stroke-width="1"/>
<text x="420.0" y="186.0" text-anchor="middle" fill="#555555" font-size="20" font-weight="normal">ח</text>
<rect x="445" y="160" width="40" height="40" rx="4" fill="#15151e" stroke="#333333" stroke-width="1"/>
<text x="465.0" y="186.0" text-anchor="middle" fill="#555555" font-size="20" font-weight="normal">ש</text>
<rect x="490" y="160" width="40" height="40" rx="4" fill="#15151e" stroke="#333333" stroke-width="1"/>
<text x="510.0" y="186.0" text-anchor="middle" fill="#555555" font-size="20" font-weight="normal">כ</text>
<rect x="535" y="160" width="40" height="40" rx="4" fill="#15151e" stroke="#333333" stroke-width="1"/>
<text x="555.0" y="186.0" text-anchor="middle" fill="#555555" font-size="20" font-weight="normal">ו</text>
<rect x="580" y="160" width="40" height="40" rx="4" fill="#15151e" stroke="#333333" stroke-width="1"/>
<text x="600.0" y="186.0" text-anchor="middle" fill="#555555" font-size="20" font-weight="normal">י</text>
<rect x="625" y="160" width="40" height="40" rx="4" fill="#15151e" stroke="#333333" stroke-width="1"/>
<text x="645.0" y="186.0" text-anchor="middle" fill="#555555" font-size="20" font-weight="normal">ר</text>
<rect x="670" y="160" width="40" height="40" rx="4" fill="#15151e" stroke="#333333" stroke-width="1"/>
<text x="690.0" y="186.0" text-anchor="middle" fill="#555555" font-size="20" font-weight="normal">א</text>
<rect x="40" y="205" width="40" height="40" rx="4" fill="#15151e" stroke="#333333" stroke-width="1"/>
<text x="60.0" y="231.0" text-anchor="middle" fill="#555555" font-size="20" font-weight="normal">י</text>
<rect x="85" y="205" width="40" height="40" rx="4" fill="#15151e" stroke="#333333" stroke-width="1"/>
<text x="105.0" y="231.0" text-anchor="middle" fill="#555555" font-size="20" font-weight="normal">ר</text>
<rect x="130" y="205" width="40" height="40" rx="4" fill="#15151e" stroke="#333333" stroke-width="1"/>
<text x="150.0" y="231.0" text-anchor="middle" fill="#555555" font-size="20" font-weight="normal">א</text>
<rect x="175" y="205" width="40" height="40" rx="4" fill="#15151e" stroke="#333333" stroke-width="1"/>
<text x="195.0" y="231.0" text-anchor="middle" fill="#555555" font-size="20" font-weight="normal">א</text>
<rect x="220" y="205" width="40" height="40" rx="4" fill="#15151e" stroke="#333333" stroke-width="1"/>
<text x="240.0" y="231.0" text-anchor="middle" fill="#555555" font-size="20" font-weight="normal">ל</text>
<rect x="265" y="205" width="40" height="40" rx="4" fill="#15151e" stroke="#333333" stroke-width="1"/>
<text x="285.0" y="231.0" text-anchor="middle" fill="#555555" font-size="20" font-weight="normal">ה</text>
<rect x="310" y="205" width="40" height="40" rx="4" fill="#15151e" stroke="#333333" stroke-width="1"/>
<text x="330.0" y="231.0" text-anchor="middle" fill="#555555" font-size="20" font-weight="normal">י</text>
<rect x="355" y="205" width="40" height="40" rx="4" fill="#15151e" stroke="#333333" stroke-width="1"/>
<text x="375.0" y="231.0" text-anchor="middle" fill="#555555" font-size="20" font-weight="normal">מ</text>
<rect x="400" y="205" width="40" height="40" rx="4" fill="#15151e" stroke="#333333" stroke-width="1"/>
<text x="420.0" y="231.0" text-anchor="middle" fill="#555555" font-size="20" font-weight="normal">כ</text>
<rect x="445" y="205" width="40" height="40" rx="4" fill="#15151e" stroke="#333333" stroke-width="1"/>
<text x="465.0" y="231.0" text-anchor="middle" fill="#555555" font-size="20" font-weight="normal">י</text>
<rect x="490" y="205" width="40" height="40" rx="4" fill="#15151e" stroke="#333333" stroke-width="1"/>
<text x="510.0" y="231.0" text-anchor="middle" fill="#555555" font-size="20" font-weight="normal">ט</text>
<rect x="535" y="205" width="40" height="40" rx="4" fill="#15151e" stroke="#333333" stroke-width="1"/>
<text x="555.0" y="231.0" text-anchor="middle" fill="#555555" font-size="20" font-weight="normal">ו</text>
<rect x="580" y="205" width="40" height="40" rx="4" fill="#15151e" stroke="#333333" stroke-width="1"/>
<text x="600.0" y="231.0" text-anchor="middle" fill="#555555" font-size="20" font-weight="normal">ב</text>
<rect x="625" y="205" width="40" height="40" rx="4" fill="#15151e" stroke="#333333" stroke-width="1"/>
<text x="645.0" y="231.0" text-anchor="middle" fill="#555555" font-size="20" font-weight="normal">ו</text>
<rect x="670" y="205" width="40" height="40" rx="4" fill="#15151e" stroke="#333333" stroke-width="1"/>
<text x="690.0" y="231.0" text-anchor="middle" fill="#555555" font-size="20" font-weight="normal">י</text>
<rect x="40" y="250" width="40" height="40" rx="4" fill="#15151e" stroke="#333333" stroke-width="1"/>
<text x="60.0" y="276.0" text-anchor="middle" fill="#555555" font-size="20" font-weight="normal">ב</text>
<rect x="85" y="250" width="40" height="40" rx="4" fill="#15151e" stroke="#333333" stroke-width="1"/>
<text x="105.0" y="276.0" text-anchor="middle" fill="#555555" font-size="20" font-weight="normal">ו</text>
<rect x="130" y="250" width="40" height="40" rx="4" fill="#15151e" stroke="#333333" stroke-width="1"/>
<text x="150.0" y="276.0" text-anchor="middle" fill="#555555" font-size="20" font-weight="normal">י</text>
<rect x="175" y="250" width="40" height="40" rx="4" fill="#15151e" stroke="#333333" stroke-width="1"/>
<text x="195.0" y="276.0" text-anchor="middle" fill="#555555" font-size="20" font-weight="normal">ה</text>
<rect x="220" y="250" width="40" height="40" rx="4" fill="#15151e" stroke="#333333" stroke-width="1"/>
<text x="240.0" y="276.0" text-anchor="middle" fill="#555555" font-size="20" font-weight="normal">י</text>
<rect x="265" y="250" width="40" height="40" rx="4" fill="#15151e" stroke="#333333" stroke-width="1"/>
<text x="285.0" y="276.0" text-anchor="middle" fill="#555555" font-size="20" font-weight="normal">ע</text>
<rect x="310" y="250" width="40" height="40" rx="4" fill="#15151e" stroke="#333333" stroke-width="1"/>
<text x="330.0" y="276.0" text-anchor="middle" fill="#555555" font-size="20" font-weight="normal">ר</text>
<rect x="355" y="250" width="40" height="40" rx="4" fill="#15151e" stroke="#333333" stroke-width="1"/>
<text x="375.0" y="276.0" text-anchor="middle" fill="#555555" font-size="20" font-weight="normal">ב</text>
<rect x="400" y="250" width="40" height="40" rx="4" fill="#15151e" stroke="#333333" stroke-width="1"/>
<text x="420.0" y="276.0" text-anchor="middle" fill="#555555" font-size="20" font-weight="normal">ו</text>
<rect x="445" y="250" width="40" height="40" rx="4" fill="#15151e" stroke="#333333" stroke-width="1"/>
<text x="465.0" y="276.0" text-anchor="middle" fill="#555555" font-size="20" font-weight="normal">י</text>
<rect x="490" y="250" width="40" height="40" rx="4" fill="#15151e" stroke="#333333" stroke-width="1"/>
<text x="510.0" y="276.0" text-anchor="middle" fill="#555555" font-size="20" font-weight="normal">ה</text>
<rect x="535" y="250" width="40" height="40" rx="4" fill="#15151e" stroke="#333333" stroke-width="1"/>
<text x="555.0" y="276.0" text-anchor="middle" fill="#555555" font-size="20" font-weight="normal">י</text>
<rect x="580" y="250" width="40" height="40" rx="4" fill="#15151e" stroke="#333333" stroke-width="1"/>
<text x="600.0" y="276.0" text-anchor="middle" fill="#555555" font-size="20" font-weight="normal">ב</text>
<rect x="625" y="250" width="40" height="40" rx="4" fill="#15151e" stroke="#333333" stroke-width="1"/>
<text x="645.0" y="276.0" text-anchor="middle" fill="#555555" font-size="20" font-weight="normal">ק</text>
<rect x="670" y="250" width="40" height="40" rx="4" fill="#15151e" stroke="#333333" stroke-width="1"/>
<text x="690.0" y="276.0" text-anchor="middle" fill="#555555" font-size="20" font-weight="normal">ר</text>
<rect x="40" y="295" width="40" height="40" rx="4" fill="#15151e" stroke="#333333" stroke-width="1"/>
<text x="60.0" y="321.0" text-anchor="middle" fill="#555555" font-size="20" font-weight="normal">ב</text>
<rect x="85" y="295" width="40" height="40" rx="4" fill="#15151e" stroke="#333333" stroke-width="1"/>
<text x="105.0" y="321.0" text-anchor="middle" fill="#555555" font-size="20" font-weight="normal">ק</text>
<rect x="130" y="295" width="40" height="40" rx="4" fill="#15151e" stroke="#333333" stroke-width="1"/>
<text x="150.0" y="321.0" text-anchor="middle" fill="#555555" font-size="20" font-weight="normal">ר</text>
<rect x="175" y="295" width="40" height="40" rx="4" fill="#15151e" stroke="#333333" stroke-width="1"/>
<text x="195.0" y="321.0" text-anchor="middle" fill="#555555" font-size="20" font-weight="normal">י</text>
<rect x="220" y="295" width="40" height="40" rx="4" fill="#15151e" stroke="#333333" stroke-width="1"/>
<text x="240.0" y="321.0" text-anchor="middle" fill="#555555" font-size="20" font-weight="normal">ו</text>
<rect x="265" y="295" width="40" height="40" rx="4" fill="#15151e" stroke="#333333" stroke-width="1"/>
<text x="285.0" y="321.0" text-anchor="middle" fill="#555555" font-size="20" font-weight="normal">מ</text>
<rect x="310" y="295" width="40" height="40" rx="4" fill="#15151e" stroke="#333333" stroke-width="1"/>
<text x="330.0" y="321.0" text-anchor="middle" fill="#555555" font-size="20" font-weight="normal">ר</text>
<rect x="355" y="295" width="40" height="40" rx="4" fill="#15151e" stroke="#333333" stroke-width="1"/>
<text x="375.0" y="321.0" text-anchor="middle" fill="#555555" font-size="20" font-weight="normal">ב</text>
<rect x="400" y="295" width="40" height="40" rx="4" fill="#15151e" stroke="#333333" stroke-width="1"/>
<text x="420.0" y="321.0" text-anchor="middle" fill="#555555" font-size="20" font-weight="normal">י</text>
<rect x="445" y="295" width="40" height="40" rx="4" fill="#15151e" stroke="#333333" stroke-width="1"/>
<text x="465.0" y="321.0" text-anchor="middle" fill="#555555" font-size="20" font-weight="normal">ע</text>
<rect x="490" y="295" width="40" height="40" rx="4" fill="#15151e" stroke="#333333" stroke-width="1"/>
<text x="510.0" y="321.0" text-anchor="middle" fill="#555555" font-size="20" font-weight="normal">י</text>
<rect x="535" y="295" width="40" height="40" rx="4" fill="#15151e" stroke="#333333" stroke-width="1"/>
<text x="555.0" y="321.0" text-anchor="middle" fill="#555555" font-size="20" font-weight="normal">ו</text>
<rect x="580" y="295" width="40" height="40" rx="4" fill="#15151e" stroke="#333333" stroke-width="1"/>
<text x="600.0" y="321.0" text-anchor="middle" fill="#555555" font-size="20" font-weight="normal">י</text>
<rect x="625" y="295" width="40" height="40" rx="4" fill="#15151e" stroke="#333333" stroke-width="1"/>
<text x="645.0" y="321.0" text-anchor="middle" fill="#555555" font-size="20" font-weight="normal">א</text>
<rect x="670" y="295" width="40" height="40" rx="4" fill="#15151e" stroke="#333333" stroke-width="1"/>
<text x="690.0" y="321.0" text-anchor="middle" fill="#555555" font-size="20" font-weight="normal">מ</text>
<rect x="40" y="340" width="40" height="40" rx="4" fill="#15151e" stroke="#333333" stroke-width="1"/>
<text x="60.0" y="366.0" text-anchor="middle" fill="#555555" font-size="20" font-weight="normal">י</text>
<rect x="85" y="340" width="40" height="40" rx="4" fill="#15151e" stroke="#333333" stroke-width="1"/>
<text x="105.0" y="366.0" text-anchor="middle" fill="#555555" font-size="20" font-weight="normal">א</text>
<rect x="130" y="340" width="40" height="40" rx="4" fill="#15151e" stroke="#333333" stroke-width="1"/>
<text x="150.0" y="366.0" text-anchor="middle" fill="#555555" font-size="20" font-weight="normal">מ</text>
<rect x="175" y="340" width="40" height="40" rx="4" fill="#15151e" stroke="#333333" stroke-width="1"/>
<text x="195.0" y="366.0" text-anchor="middle" fill="#555555" font-size="20" font-weight="normal">ר</text>
<rect x="220" y="340" width="40" height="40" rx="4" fill="#15151e" stroke="#333333" stroke-width="1"/>
<text x="240.0" y="366.0" text-anchor="middle" fill="#555555" font-size="20" font-weight="normal">א</text>
<rect x="265" y="340" width="40" height="40" rx="4" fill="#15151e" stroke="#333333" stroke-width="1"/>
<text x="285.0" y="366.0" text-anchor="middle" fill="#555555" font-size="20" font-weight="normal">ל</text>
<rect x="310" y="340" width="40" height="40" rx="4" fill="#15151e" stroke="#333333" stroke-width="1"/>
<text x="330.0" y="366.0" text-anchor="middle" fill="#555555" font-size="20" font-weight="normal">ה</text>
<rect x="355" y="340" width="40" height="40" rx="4" fill="#15151e" stroke="#333333" stroke-width="1"/>
<text x="375.0" y="366.0" text-anchor="middle" fill="#555555" font-size="20" font-weight="normal">י</text>
<rect x="400" y="340" width="40" height="40" rx="4" fill="#15151e" stroke="#333333" stroke-width="1"/>
<text x="420.0" y="366.0" text-anchor="middle" fill="#555555" font-size="20" font-weight="normal">מ</text>
<rect x="445" y="340" width="40" height="40" rx="4" fill="#15151e" stroke="#333333" stroke-width="1"/>
<text x="465.0" y="366.0" text-anchor="middle" fill="#555555" font-size="20" font-weight="normal">י</text>
<rect x="490" y="340" width="40" height="40" rx="4" fill="#15151e" stroke="#333333" stroke-width="1"/>
<text x="510.0" y="366.0" text-anchor="middle" fill="#555555" font-size="20" font-weight="normal">ש</text>
<rect x="535" y="340" width="40" height="40" rx="4" fill="#15151e" stroke="#333333" stroke-width="1"/>
<text x="555.0" y="366.0" text-anchor="middle" fill="#555555" font-size="20" font-weight="normal">ר</text>
<rect x="580" y="340" width="40" height="40" rx="4" fill="#15151e" stroke="#333333" stroke-width="1"/>
<text x="600.0" y="366.0" text-anchor="middle" fill="#555555" font-size="20" font-weight="normal">צ</text>
<rect x="625" y="340" width="40" height="40" rx="4" fill="#15151e" stroke="#333333" stroke-width="1"/>
<text x="645.0" y="366.0" text-anchor="middle" fill="#555555" font-size="20" font-weight="normal">ו</text>
<rect x="670" y="340" width="40" height="40" rx="4" fill="#15151e" stroke="#333333" stroke-width="1"/>
<text x="690.0" y="366.0" text-anchor="middle" fill="#555555" font-size="20" font-weight="normal">ה</text>
<rect x="40" y="385" width="40" height="40" rx="4" fill="#15151e" stroke="#333333" stroke-width="1"/>
<text x="60.0" y="411.0" text-anchor="middle" fill="#555555" font-size="20" font-weight="normal">צ</text>
<rect x="85" y="385" width="40" height="40" rx="4" fill="#15151e" stroke="#333333" stroke-width="1"/>
<text x="105.0" y="411.0" text-anchor="middle" fill="#555555" font-size="20" font-weight="normal">ו</text>
<rect x="130" y="385" width="40" height="40" rx="4" fill="#15151e" stroke="#333333" stroke-width="1"/>
<text x="150.0" y="411.0" text-anchor="middle" fill="#555555" font-size="20" font-weight="normal">ה</text>
<rect x="175" y="385" width="40" height="40" rx="4" fill="#15151e" stroke="#333333" stroke-width="1"/>
<text x="195.0" y="411.0" text-anchor="middle" fill="#555555" font-size="20" font-weight="normal">מ</text>
<rect x="220" y="385" width="40" height="40" rx="4" fill="#15151e" stroke="#333333" stroke-width="1"/>
<text x="240.0" y="411.0" text-anchor="middle" fill="#555555" font-size="20" font-weight="normal">י</text>
<rect x="265" y="385" width="40" height="40" rx="4" fill="#9C27B0" stroke="#7B1FA2" stroke-width="2"/>
<text x="285.0" y="411.0" text-anchor="middle" fill="#ffffff" font-size="20" font-weight="bold">מ</text>
<rect x="310" y="385" width="40" height="40" rx="4" fill="#15151e" stroke="#333333" stroke-width="1"/>
<text x="330.0" y="411.0" text-anchor="middle" fill="#555555" font-size="20" font-weight="normal">ש</text>
<rect x="355" y="385" width="40" height="40" rx="4" fill="#15151e" stroke="#333333" stroke-width="1"/>
<text x="375.0" y="411.0" text-anchor="middle" fill="#555555" font-size="20" font-weight="normal">ר</text>
<rect x="400" y="385" width="40" height="40" rx="4" fill="#009688" stroke="#00695C" stroke-width="2"/>
<text x="420.0" y="411.0" text-anchor="middle" fill="#ffffff" font-size="20" font-weight="bold">צ</text>
<rect x="445" y="385" width="40" height="40" rx="4" fill="#15151e" stroke="#333333" stroke-width="1"/>
<text x="465.0" y="411.0" text-anchor="middle" fill="#555555" font-size="20" font-weight="normal">נ</text>
<rect x="490" y="385" width="40" height="40" rx="4" fill="#4CAF50" stroke="#2E7D32" stroke-width="2"/>
<text x="510.0" y="411.0" text-anchor="middle" fill="#ffffff" font-size="20" font-weight="bold">פ</text>
<rect x="535" y="385" width="40" height="40" rx="4" fill="#15151e" stroke="#333333" stroke-width="1"/>
<text x="555.0" y="411.0" text-anchor="middle" fill="#555555" font-size="20" font-weight="normal">ש</text>
<rect x="580" y="385" width="40" height="40" rx="4" fill="#15151e" stroke="#333333" stroke-width="1"/>
<text x="600.0" y="411.0" text-anchor="middle" fill="#555555" font-size="20" font-weight="normal">ח</text>
<rect x="625" y="385" width="40" height="40" rx="4" fill="#15151e" stroke="#333333" stroke-width="1"/>
<text x="645.0" y="411.0" text-anchor="middle" fill="#555555" font-size="20" font-weight="normal">י</text>
<rect x="670" y="385" width="40" height="40" rx="4" fill="#15151e" stroke="#333333" stroke-width="1"/>
<text x="690.0" y="411.0" text-anchor="middle" fill="#555555" font-size="20" font-weight="normal">ה</text>
<rect x="40" y="430" width="40" height="40" rx="4" fill="#15151e" stroke="#333333" stroke-width="1"/>
<text x="60.0" y="456.0" text-anchor="middle" fill="#555555" font-size="20" font-weight="normal">ח</text>
<rect x="85" y="430" width="40" height="40" rx="4" fill="#15151e" stroke="#333333" stroke-width="1"/>
<text x="105.0" y="456.0" text-anchor="middle" fill="#555555" font-size="20" font-weight="normal">י</text>
<rect x="130" y="430" width="40" height="40" rx="4" fill="#15151e" stroke="#333333" stroke-width="1"/>
<text x="150.0" y="456.0" text-anchor="middle" fill="#555555" font-size="20" font-weight="normal">ה</text>
<rect x="175" y="430" width="40" height="40" rx="4" fill="#15151e" stroke="#333333" stroke-width="1"/>
<text x="195.0" y="456.0" text-anchor="middle" fill="#555555" font-size="20" font-weight="normal">ו</text>
<rect x="220" y="430" width="40" height="40" rx="4" fill="#15151e" stroke="#333333" stroke-width="1"/>
<text x="240.0" y="456.0" text-anchor="middle" fill="#555555" font-size="20" font-weight="normal">ע</text>
<rect x="265" y="430" width="40" height="40" rx="4" fill="#15151e" stroke="#333333" stroke-width="1"/>
<text x="285.0" y="456.0" text-anchor="middle" fill="#555555" font-size="20" font-weight="normal">ו</text>
<rect x="310" y="430" width="40" height="40" rx="4" fill="#009688" stroke="#00695C" stroke-width="2"/>
<text x="330.0" y="456.0" text-anchor="middle" fill="#ffffff" font-size="20" font-weight="bold">פ</text>
<rect x="355" y="430" width="40" height="40" rx="4" fill="#15151e" stroke="#333333" stroke-width="1"/>
<text x="375.0" y="456.0" text-anchor="middle" fill="#555555" font-size="20" font-weight="normal">י</text>
<rect x="400" y="430" width="40" height="40" rx="4" fill="#15151e" stroke="#333333" stroke-width="1"/>
<text x="420.0" y="456.0" text-anchor="middle" fill="#555555" font-size="20" font-weight="normal">ע</text>
<rect x="445" y="430" width="40" height="40" rx="4" fill="#15151e" stroke="#333333" stroke-width="1"/>
<text x="465.0" y="456.0" text-anchor="middle" fill="#555555" font-size="20" font-weight="normal">ו</text>
<rect x="490" y="430" width="40" height="40" rx="4" fill="#4CAF50" stroke="#2E7D32" stroke-width="2"/>
<text x="510.0" y="456.0" text-anchor="middle" fill="#ffffff" font-size="20" font-weight="bold">פ</text>
<rect x="535" y="430" width="40" height="40" rx="4" fill="#15151e" stroke="#333333" stroke-width="1"/>
<text x="555.0" y="456.0" text-anchor="middle" fill="#555555" font-size="20" font-weight="normal">פ</text>
<rect x="580" y="430" width="40" height="40" rx="4" fill="#15151e" stroke="#333333" stroke-width="1"/>
<text x="600.0" y="456.0" text-anchor="middle" fill="#555555" font-size="20" font-weight="normal">ע</text>
<rect x="625" y="430" width="40" height="40" rx="4" fill="#15151e" stroke="#333333" stroke-width="1"/>
<text x="645.0" y="456.0" text-anchor="middle" fill="#555555" font-size="20" font-weight="normal">ל</text>
<rect x="670" y="430" width="40" height="40" rx="4" fill="#15151e" stroke="#333333" stroke-width="1"/>
<text x="690.0" y="456.0" text-anchor="middle" fill="#555555" font-size="20" font-weight="normal">ה</text>
<rect x="40" y="475" width="40" height="40" rx="4" fill="#15151e" stroke="#333333" stroke-width="1"/>
<text x="60.0" y="501.0" text-anchor="middle" fill="#555555" font-size="20" font-weight="normal">ע</text>
<rect x="85" y="475" width="40" height="40" rx="4" fill="#15151e" stroke="#333333" stroke-width="1"/>
<text x="105.0" y="501.0" text-anchor="middle" fill="#555555" font-size="20" font-weight="normal">ל</text>
<rect x="130" y="475" width="40" height="40" rx="4" fill="#15151e" stroke="#333333" stroke-width="1"/>
<text x="150.0" y="501.0" text-anchor="middle" fill="#555555" font-size="20" font-weight="normal">ה</text>
<rect x="175" y="475" width="40" height="40" rx="4" fill="#15151e" stroke="#333333" stroke-width="1"/>
<text x="195.0" y="501.0" text-anchor="middle" fill="#555555" font-size="20" font-weight="normal">א</text>
<rect x="220" y="475" width="40" height="40" rx="4" fill="#009688" stroke="#00695C" stroke-width="2"/>
<text x="240.0" y="501.0" text-anchor="middle" fill="#ffffff" font-size="20" font-weight="bold">ר</text>
<rect x="265" y="475" width="40" height="40" rx="4" fill="#15151e" stroke="#333333" stroke-width="1"/>
<text x="285.0" y="501.0" text-anchor="middle" fill="#555555" font-size="20" font-weight="normal">צ</text>
<rect x="310" y="475" width="40" height="40" rx="4" fill="#15151e" stroke="#333333" stroke-width="1"/>
<text x="330.0" y="501.0" text-anchor="middle" fill="#555555" font-size="20" font-weight="normal">ע</text>
<rect x="355" y="475" width="40" height="40" rx="4" fill="#15151e" stroke="#333333" stroke-width="1"/>
<text x="375.0" y="501.0" text-anchor="middle" fill="#555555" font-size="20" font-weight="normal">ל</text>
<rect x="400" y="475" width="40" height="40" rx="4" fill="#15151e" stroke="#333333" stroke-width="1"/>
<text x="420.0" y="501.0" text-anchor="middle" fill="#555555" font-size="20" font-weight="normal">פ</text>
<rect x="445" y="475" width="40" height="40" rx="4" fill="#15151e" stroke="#333333" stroke-width="1"/>
<text x="465.0" y="501.0" text-anchor="middle" fill="#555555" font-size="20" font-weight="normal">נ</text>
<rect x="490" y="475" width="40" height="40" rx="4" fill="#4CAF50" stroke="#2E7D32" stroke-width="2"/>
<text x="510.0" y="501.0" text-anchor="middle" fill="#ffffff" font-size="20" font-weight="bold">י</text>
<rect x="535" y="475" width="40" height="40" rx="4" fill="#15151e" stroke="#333333" stroke-width="1"/>
<text x="555.0" y="501.0" text-anchor="middle" fill="#555555" font-size="20" font-weight="normal">ר</text>
<rect x="580" y="475" width="40" height="40" rx="4" fill="#15151e" stroke="#333333" stroke-width="1"/>
<text x="600.0" y="501.0" text-anchor="middle" fill="#555555" font-size="20" font-weight="normal">ק</text>
<rect x="625" y="475" width="40" height="40" rx="4" fill="#15151e" stroke="#333333" stroke-width="1"/>
<text x="645.0" y="501.0" text-anchor="middle" fill="#555555" font-size="20" font-weight="normal">י</text>
<rect x="670" y="475" width="40" height="40" rx="4" fill="#15151e" stroke="#333333" stroke-width="1"/>
<text x="690.0" y="501.0" text-anchor="middle" fill="#555555" font-size="20" font-weight="normal">ע</text>
<rect x="40" y="520" width="40" height="40" rx="4" fill="#15151e" stroke="#333333" stroke-width="1"/>
<text x="60.0" y="546.0" text-anchor="middle" fill="#555555" font-size="20" font-weight="normal">ק</text>
<rect x="85" y="520" width="40" height="40" rx="4" fill="#15151e" stroke="#333333" stroke-width="1"/>
<text x="105.0" y="546.0" text-anchor="middle" fill="#555555" font-size="20" font-weight="normal">י</text>
<rect x="130" y="520" width="40" height="40" rx="4" fill="#15151e" stroke="#333333" stroke-width="1"/>
<text x="150.0" y="546.0" text-anchor="middle" fill="#555555" font-size="20" font-weight="normal">ע</text>
<rect x="175" y="520" width="40" height="40" rx="4" fill="#15151e" stroke="#333333" stroke-width="1"/>
<text x="195.0" y="546.0" text-anchor="middle" fill="#555555" font-size="20" font-weight="normal">ה</text>
<rect x="220" y="520" width="40" height="40" rx="4" fill="#15151e" stroke="#333333" stroke-width="1"/>
<text x="240.0" y="546.0" text-anchor="middle" fill="#555555" font-size="20" font-weight="normal">ש</text>
<rect x="265" y="520" width="40" height="40" rx="4" fill="#15151e" stroke="#333333" stroke-width="1"/>
<text x="285.0" y="546.0" text-anchor="middle" fill="#555555" font-size="20" font-weight="normal">מ</text>
<rect x="310" y="520" width="40" height="40" rx="4" fill="#15151e" stroke="#333333" stroke-width="1"/>
<text x="330.0" y="546.0" text-anchor="middle" fill="#555555" font-size="20" font-weight="normal">י</text>
<rect x="355" y="520" width="40" height="40" rx="4" fill="#15151e" stroke="#333333" stroke-width="1"/>
<text x="375.0" y="546.0" text-anchor="middle" fill="#555555" font-size="20" font-weight="normal">מ</text>
<rect x="400" y="520" width="40" height="40" rx="4" fill="#15151e" stroke="#333333" stroke-width="1"/>
<text x="420.0" y="546.0" text-anchor="middle" fill="#555555" font-size="20" font-weight="normal">ו</text>
<rect x="445" y="520" width="40" height="40" rx="4" fill="#15151e" stroke="#333333" stroke-width="1"/>
<text x="465.0" y="546.0" text-anchor="middle" fill="#555555" font-size="20" font-weight="normal">י</text>
<rect x="490" y="520" width="40" height="40" rx="4" fill="#15151e" stroke="#333333" stroke-width="1"/>
<text x="510.0" y="546.0" text-anchor="middle" fill="#555555" font-size="20" font-weight="normal">ב</text>
<rect x="535" y="520" width="40" height="40" rx="4" fill="#15151e" stroke="#333333" stroke-width="1"/>
<text x="555.0" y="546.0" text-anchor="middle" fill="#555555" font-size="20" font-weight="normal">ר</text>
<rect x="580" y="520" width="40" height="40" rx="4" fill="#15151e" stroke="#333333" stroke-width="1"/>
<text x="600.0" y="546.0" text-anchor="middle" fill="#555555" font-size="20" font-weight="normal">א</text>
<rect x="625" y="520" width="40" height="40" rx="4" fill="#15151e" stroke="#333333" stroke-width="1"/>
<text x="645.0" y="546.0" text-anchor="middle" fill="#555555" font-size="20" font-weight="normal">א</text>
<rect x="670" y="520" width="40" height="40" rx="4" fill="#15151e" stroke="#333333" stroke-width="1"/>
<text x="690.0" y="546.0" text-anchor="middle" fill="#555555" font-size="20" font-weight="normal">ל</text>
<rect x="40" y="565" width="40" height="40" rx="4" fill="#15151e" stroke="#333333" stroke-width="1"/>
<text x="60.0" y="591.0" text-anchor="middle" fill="#555555" font-size="20" font-weight="normal">א</text>
<rect x="85" y="565" width="40" height="40" rx="4" fill="#15151e" stroke="#333333" stroke-width="1"/>
<text x="105.0" y="591.0" text-anchor="middle" fill="#555555" font-size="20" font-weight="normal">א</text>
<rect x="130" y="565" width="40" height="40" rx="4" fill="#15151e" stroke="#333333" stroke-width="1"/>
<text x="150.0" y="591.0" text-anchor="middle" fill="#555555" font-size="20" font-weight="normal">ל</text>
<rect x="175" y="565" width="40" height="40" rx="4" fill="#15151e" stroke="#333333" stroke-width="1"/>
<text x="195.0" y="591.0" text-anchor="middle" fill="#555555" font-size="20" font-weight="normal">ה</text>
<rect x="220" y="565" width="40" height="40" rx="4" fill="#15151e" stroke="#333333" stroke-width="1"/>
<text x="240.0" y="591.0" text-anchor="middle" fill="#555555" font-size="20" font-weight="normal">י</text>
<rect x="265" y="565" width="40" height="40" rx="4" fill="#15151e" stroke="#333333" stroke-width="1"/>
<text x="285.0" y="591.0" text-anchor="middle" fill="#555555" font-size="20" font-weight="normal">מ</text>
<rect x="310" y="565" width="40" height="40" rx="4" fill="#15151e" stroke="#333333" stroke-width="1"/>
<text x="330.0" y="591.0" text-anchor="middle" fill="#555555" font-size="20" font-weight="normal">א</text>
<rect x="355" y="565" width="40" height="40" rx="4" fill="#15151e" stroke="#333333" stroke-width="1"/>
<text x="375.0" y="591.0" text-anchor="middle" fill="#555555" font-size="20" font-weight="normal">ת</text>
<rect x="400" y="565" width="40" height="40" rx="4" fill="#15151e" stroke="#333333" stroke-width="1"/>
<text x="420.0" y="591.0" text-anchor="middle" fill="#555555" font-size="20" font-weight="normal">ה</text>
<rect x="445" y="565" width="40" height="40" rx="4" fill="#15151e" stroke="#333333" stroke-width="1"/>
<text x="465.0" y="591.0" text-anchor="middle" fill="#555555" font-size="20" font-weight="normal">ת</text>
<rect x="490" y="565" width="40" height="40" rx="4" fill="#15151e" stroke="#333333" stroke-width="1"/>
<text x="510.0" y="591.0" text-anchor="middle" fill="#555555" font-size="20" font-weight="normal">נ</text>
<rect x="535" y="565" width="40" height="40" rx="4" fill="#15151e" stroke="#333333" stroke-width="1"/>
<text x="555.0" y="591.0" text-anchor="middle" fill="#555555" font-size="20" font-weight="normal">י</text>
<rect x="580" y="565" width="40" height="40" rx="4" fill="#15151e" stroke="#333333" stroke-width="1"/>
<text x="600.0" y="591.0" text-anchor="middle" fill="#555555" font-size="20" font-weight="normal">נ</text>
<rect x="625" y="565" width="40" height="40" rx="4" fill="#15151e" stroke="#333333" stroke-width="1"/>
<text x="645.0" y="591.0" text-anchor="middle" fill="#555555" font-size="20" font-weight="normal">מ</text>
<rect x="670" y="565" width="40" height="40" rx="4" fill="#15151e" stroke="#333333" stroke-width="1"/>
<text x="690.0" y="591.0" text-anchor="middle" fill="#555555" font-size="20" font-weight="normal">ה</text>
<rect x="40" y="610" width="40" height="40" rx="4" fill="#15151e" stroke="#333333" stroke-width="1"/>
<text x="60.0" y="636.0" text-anchor="middle" fill="#555555" font-size="20" font-weight="normal">נ</text>
<rect x="85" y="610" width="40" height="40" rx="4" fill="#15151e" stroke="#333333" stroke-width="1"/>
<text x="105.0" y="636.0" text-anchor="middle" fill="#555555" font-size="20" font-weight="normal">מ</text>
<rect x="130" y="610" width="40" height="40" rx="4" fill="#15151e" stroke="#333333" stroke-width="1"/>
<text x="150.0" y="636.0" text-anchor="middle" fill="#555555" font-size="20" font-weight="normal">ה</text>
<rect x="175" y="610" width="40" height="40" rx="4" fill="#15151e" stroke="#333333" stroke-width="1"/>
<text x="195.0" y="636.0" text-anchor="middle" fill="#555555" font-size="20" font-weight="normal">ג</text>
<rect x="220" y="610" width="40" height="40" rx="4" fill="#15151e" stroke="#333333" stroke-width="1"/>
<text x="240.0" y="636.0" text-anchor="middle" fill="#555555" font-size="20" font-weight="normal">ד</text>
<rect x="265" y="610" width="40" height="40" rx="4" fill="#15151e" stroke="#333333" stroke-width="1"/>
<text x="285.0" y="636.0" text-anchor="middle" fill="#555555" font-size="20" font-weight="normal">ל</text>
<rect x="310" y="610" width="40" height="40" rx="4" fill="#9C27B0" stroke="#7B1FA2" stroke-width="2"/>
<text x="330.0" y="636.0" text-anchor="middle" fill="#ffffff" font-size="20" font-weight="bold">י</text>
<rect x="355" y="610" width="40" height="40" rx="4" fill="#15151e" stroke="#333333" stroke-width="1"/>
<text x="375.0" y="636.0" text-anchor="middle" fill="#555555" font-size="20" font-weight="normal">מ</text>
<rect x="400" y="610" width="40" height="40" rx="4" fill="#15151e" stroke="#333333" stroke-width="1"/>
<text x="420.0" y="636.0" text-anchor="middle" fill="#555555" font-size="20" font-weight="normal">ו</text>
<rect x="445" y="610" width="40" height="40" rx="4" fill="#15151e" stroke="#333333" stroke-width="1"/>
<text x="465.0" y="636.0" text-anchor="middle" fill="#555555" font-size="20" font-weight="normal">א</text>
<rect x="490" y="610" width="40" height="40" rx="4" fill="#15151e" stroke="#333333" stroke-width="1"/>
<text x="510.0" y="636.0" text-anchor="middle" fill="#555555" font-size="20" font-weight="normal">ת</text>
<rect x="535" y="610" width="40" height="40" rx="4" fill="#15151e" stroke="#333333" stroke-width="1"/>
<text x="555.0" y="636.0" text-anchor="middle" fill="#555555" font-size="20" font-weight="normal">כ</text>
<rect x="580" y="610" width="40" height="40" rx="4" fill="#15151e" stroke="#333333" stroke-width="1"/>
<text x="600.0" y="636.0" text-anchor="middle" fill="#555555" font-size="20" font-weight="normal">ל</text>
<rect x="625" y="610" width="40" height="40" rx="4" fill="#15151e" stroke="#333333" stroke-width="1"/>
<text x="645.0" y="636.0" text-anchor="middle" fill="#555555" font-size="20" font-weight="normal">נ</text>
<rect x="670" y="610" width="40" height="40" rx="4" fill="#15151e" stroke="#333333" stroke-width="1"/>
<text x="690.0" y="636.0" text-anchor="middle" fill="#555555" font-size="20" font-weight="normal">פ</text>
<rect x="40" y="655" width="40" height="40" rx="4" fill="#15151e" stroke="#333333" stroke-width="1"/>
<text x="60.0" y="681.0" text-anchor="middle" fill="#555555" font-size="20" font-weight="normal">ל</text>
<rect x="85" y="655" width="40" height="40" rx="4" fill="#15151e" stroke="#333333" stroke-width="1"/>
<text x="105.0" y="681.0" text-anchor="middle" fill="#555555" font-size="20" font-weight="normal">נ</text>
<rect x="130" y="655" width="40" height="40" rx="4" fill="#15151e" stroke="#333333" stroke-width="1"/>
<text x="150.0" y="681.0" text-anchor="middle" fill="#555555" font-size="20" font-weight="normal">פ</text>
<rect x="175" y="655" width="40" height="40" rx="4" fill="#15151e" stroke="#333333" stroke-width="1"/>
<text x="195.0" y="681.0" text-anchor="middle" fill="#555555" font-size="20" font-weight="normal">ש</text>
<rect x="220" y="655" width="40" height="40" rx="4" fill="#15151e" stroke="#333333" stroke-width="1"/>
<text x="240.0" y="681.0" text-anchor="middle" fill="#555555" font-size="20" font-weight="normal">ה</text>
<rect x="265" y="655" width="40" height="40" rx="4" fill="#15151e" stroke="#333333" stroke-width="1"/>
<text x="285.0" y="681.0" text-anchor="middle" fill="#555555" font-size="20" font-weight="normal">ח</text>
<rect x="310" y="655" width="40" height="40" rx="4" fill="#15151e" stroke="#333333" stroke-width="1"/>
<text x="330.0" y="681.0" text-anchor="middle" fill="#555555" font-size="20" font-weight="normal">י</text>
<rect x="355" y="655" width="40" height="40" rx="4" fill="#15151e" stroke="#333333" stroke-width="1"/>
<text x="375.0" y="681.0" text-anchor="middle" fill="#555555" font-size="20" font-weight="normal">ה</text>
<rect x="400" y="655" width="40" height="40" rx="4" fill="#15151e" stroke="#333333" stroke-width="1"/>
<text x="420.0" y="681.0" text-anchor="middle" fill="#555555" font-size="20" font-weight="normal">ה</text>
<rect x="445" y="655" width="40" height="40" rx="4" fill="#15151e" stroke="#333333" stroke-width="1"/>
<text x="465.0" y="681.0" text-anchor="middle" fill="#555555" font-size="20" font-weight="normal">ר</text>
<rect x="490" y="655" width="40" height="40" rx="4" fill="#15151e" stroke="#333333" stroke-width="1"/>
<text x="510.0" y="681.0" text-anchor="middle" fill="#555555" font-size="20" font-weight="normal">מ</text>
<rect x="535" y="655" width="40" height="40" rx="4" fill="#15151e" stroke="#333333" stroke-width="1"/>
<text x="555.0" y="681.0" text-anchor="middle" fill="#555555" font-size="20" font-weight="normal">ש</text>
<rect x="580" y="655" width="40" height="40" rx="4" fill="#15151e" stroke="#333333" stroke-width="1"/>
<text x="600.0" y="681.0" text-anchor="middle" fill="#555555" font-size="20" font-weight="normal">ת</text>
<rect x="625" y="655" width="40" height="40" rx="4" fill="#15151e" stroke="#333333" stroke-width="1"/>
<text x="645.0" y="681.0" text-anchor="middle" fill="#555555" font-size="20" font-weight="normal">א</text>
<rect x="670" y="655" width="40" height="40" rx="4" fill="#15151e" stroke="#333333" stroke-width="1"/>
<text x="690.0" y="681.0" text-anchor="middle" fill="#555555" font-size="20" font-weight="normal">ש</text>
<rect x="40" y="700" width="40" height="40" rx="4" fill="#15151e" stroke="#333333" stroke-width="1"/>
<text x="60.0" y="726.0" text-anchor="middle" fill="#555555" font-size="20" font-weight="normal">ת</text>
<rect x="85" y="700" width="40" height="40" rx="4" fill="#15151e" stroke="#333333" stroke-width="1"/>
<text x="105.0" y="726.0" text-anchor="middle" fill="#555555" font-size="20" font-weight="normal">א</text>
<rect x="130" y="700" width="40" height="40" rx="4" fill="#15151e" stroke="#333333" stroke-width="1"/>
<text x="150.0" y="726.0" text-anchor="middle" fill="#555555" font-size="20" font-weight="normal">ש</text>
<rect x="175" y="700" width="40" height="40" rx="4" fill="#15151e" stroke="#333333" stroke-width="1"/>
<text x="195.0" y="726.0" text-anchor="middle" fill="#555555" font-size="20" font-weight="normal">ר</text>
<rect x="220" y="700" width="40" height="40" rx="4" fill="#15151e" stroke="#333333" stroke-width="1"/>
<text x="240.0" y="726.0" text-anchor="middle" fill="#555555" font-size="20" font-weight="normal">ש</text>
<rect x="265" y="700" width="40" height="40" rx="4" fill="#15151e" stroke="#333333" stroke-width="1"/>
<text x="285.0" y="726.0" text-anchor="middle" fill="#555555" font-size="20" font-weight="normal">ר</text>
<rect x="310" y="700" width="40" height="40" rx="4" fill="#15151e" stroke="#333333" stroke-width="1"/>
<text x="330.0" y="726.0" text-anchor="middle" fill="#555555" font-size="20" font-weight="normal">צ</text>
<rect x="355" y="700" width="40" height="40" rx="4" fill="#15151e" stroke="#333333" stroke-width="1"/>
<text x="375.0" y="726.0" text-anchor="middle" fill="#555555" font-size="20" font-weight="normal">ו</text>
<rect x="400" y="700" width="40" height="40" rx="4" fill="#15151e" stroke="#333333" stroke-width="1"/>
<text x="420.0" y="726.0" text-anchor="middle" fill="#555555" font-size="20" font-weight="normal">ה</text>
<rect x="445" y="700" width="40" height="40" rx="4" fill="#15151e" stroke="#333333" stroke-width="1"/>
<text x="465.0" y="726.0" text-anchor="middle" fill="#555555" font-size="20" font-weight="normal">מ</text>
<rect x="490" y="700" width="40" height="40" rx="4" fill="#15151e" stroke="#333333" stroke-width="1"/>
<text x="510.0" y="726.0" text-anchor="middle" fill="#555555" font-size="20" font-weight="normal">י</text>
<rect x="535" y="700" width="40" height="40" rx="4" fill="#15151e" stroke="#333333" stroke-width="1"/>
<text x="555.0" y="726.0" text-anchor="middle" fill="#555555" font-size="20" font-weight="normal">מ</text>
<rect x="580" y="700" width="40" height="40" rx="4" fill="#15151e" stroke="#333333" stroke-width="1"/>
<text x="600.0" y="726.0" text-anchor="middle" fill="#555555" font-size="20" font-weight="normal">ל</text>
<rect x="625" y="700" width="40" height="40" rx="4" fill="#15151e" stroke="#333333" stroke-width="1"/>
<text x="645.0" y="726.0" text-anchor="middle" fill="#555555" font-size="20" font-weight="normal">מ</text>
<rect x="670" y="700" width="40" height="40" rx="4" fill="#15151e" stroke="#333333" stroke-width="1"/>
<text x="690.0" y="726.0" text-anchor="middle" fill="#555555" font-size="20" font-weight="normal">י</text>
<rect x="227.5" y="785" width="80" height="25" rx="10" fill="#4CAF50"/>
<text x="267.5" y="802" text-anchor="middle" fill="white" font-size="12" font-weight="bold" font-family="Arial">PEPE</text>
<rect x="317.5" y="785" width="80" height="25" rx="10" fill="#009688"/>
<text x="357.5" y="802" text-anchor="middle" fill="white" font-size="12" font-weight="bold" font-family="Arial">FROG</text>
<rect x="407.5" y="785" width="80" height="25" rx="10" fill="#9C27B0"/>
<text x="447.5" y="802" text-anchor="middle" fill="white" font-size="12" font-weight="bold" font-family="Arial">MEME</text>
</svg>